<svg width="282" height="102" viewBox="0 0 282 102" fill="none" xmlns="http://www.w3.org/2000/svg">
<path fill-rule="evenodd" clip-rule="evenodd" d="M86.1274 46.9786C86.1274 25.3684 68.5888 7.82977 46.9786 7.82977C25.3684 7.82977 7.82977 25.3684 7.82977 46.9786V72.9734V78.2977H0V46.9786C0 21.0229 21.0229 0 46.9786 0C72.9343 0 93.9572 21.0229 93.9572 46.9786V78.2977H86.1274V72.9734V69.2934V46.9786ZM70.4679 46.9786C70.4679 59.9369 59.9369 70.4679 46.9786 70.4679C41.4195 70.4679 36.3301 68.5496 32.3369 65.3394C31.9455 65.0262 31.3191 65.3003 31.3191 65.8092V73.6781C31.3191 73.9521 31.4757 74.2262 31.7106 74.3436C36.2127 76.8883 41.4195 78.2977 46.9786 78.2977C64.2824 78.2977 78.2977 64.2824 78.2977 46.9786C78.2977 29.6748 64.2824 15.6595 46.9786 15.6595C29.6748 15.6595 15.6595 29.6748 15.6595 46.9786V78.2977H23.4893V46.9786C23.4893 34.0203 34.0203 23.4893 46.9786 23.4893C59.9369 23.4893 70.4679 34.0203 70.4679 46.9786ZM46.9786 54.8084C51.285 54.8084 54.8084 51.285 54.8084 46.9786C54.8084 42.6722 51.285 39.1488 46.9786 39.1488C42.6722 39.1488 39.1488 42.6722 39.1488 46.9786C39.1488 51.285 42.6722 54.8084 46.9786 54.8084ZM46.9786 62.6381C55.6305 62.6381 62.6381 55.6305 62.6381 46.9786C62.6381 38.3267 55.6305 31.3191 46.9786 31.3191C38.3267 31.3191 31.3191 38.3267 31.3191 46.9786C31.3191 55.6305 38.3267 62.6381 46.9786 62.6381ZM276.117 32.1412C272.28 28.3829 267.269 26.4646 261.084 26.4646C257.599 26.4646 254.428 27.1693 251.531 28.6178C248.673 30.0272 246.442 32.0629 244.759 34.6467V27.4042H236.302V78.2977H244.759V50.1497C244.759 44.8254 246.05 40.7539 248.673 37.9744C251.336 35.1948 254.898 33.7854 259.361 33.7854C263.746 33.7854 267.23 35.1557 269.775 37.8569C272.319 40.519 273.572 44.3948 273.572 49.4841V78.2977H281.872V48.3097C281.872 41.2237 279.953 35.8603 276.117 32.1412ZM142.815 79.1198C138.039 79.1198 133.732 78.0236 129.818 75.8704C125.981 73.7172 122.927 70.6245 120.735 66.6705C118.582 62.6381 117.486 58.0186 117.486 52.7335C117.486 47.5267 118.582 42.9463 120.813 38.9922C123.123 34.9599 126.216 31.9063 130.092 29.7923C134.006 27.6391 138.352 26.5429 143.167 26.5429C147.983 26.5429 152.367 27.6391 156.243 29.7923C160.158 31.9063 163.211 34.9208 165.443 38.8748C167.753 42.8288 168.888 47.4484 168.888 52.6943C168.888 57.9403 167.714 62.599 165.365 66.6313C163.055 70.5854 159.962 73.6781 155.969 75.8313C152.015 78.0628 147.63 79.1198 142.815 79.1198ZM142.815 71.7207C145.869 71.7207 148.687 71.016 151.349 69.5675C154.012 68.1581 156.165 66.0049 157.77 63.1471C159.453 60.2892 160.275 56.8441 160.275 52.7335C160.275 48.662 159.453 45.1778 157.848 42.3199C156.243 39.462 154.129 37.348 151.545 36.0169C148.961 34.6076 146.143 33.8637 143.089 33.8637C139.996 33.8637 137.138 34.5684 134.555 36.0169C132.01 37.3871 129.974 39.5012 128.408 42.3199C126.842 45.1778 126.098 48.6229 126.098 52.7335C126.098 56.8833 126.842 60.3675 128.33 63.2254C129.896 66.0832 131.932 68.1973 134.476 69.6458C136.982 71.016 139.761 71.7207 142.815 71.7207ZM185.37 36.7999C187.053 33.9029 189.52 31.4757 192.808 29.5574C196.136 27.5608 200.011 26.5821 204.435 26.5821C208.937 26.5821 213.048 27.6782 216.689 29.8314C220.408 31.9846 223.305 35.0774 225.419 39.0314C227.533 42.9463 228.59 47.4875 228.59 52.6943C228.59 57.8228 227.533 62.4032 225.419 66.4356C223.305 70.4679 220.408 73.5998 216.689 75.8313C213.048 78.0628 208.937 79.1589 204.435 79.1589C200.09 79.1589 196.253 78.1802 192.925 76.2619C189.637 74.2653 187.131 71.8381 185.409 68.9411V101.826H176.953V27.4042H185.409V36.7999H185.37ZM219.899 52.6552C219.899 48.8186 219.116 45.4909 217.589 42.6331C216.023 39.7752 213.948 37.622 211.286 36.1344C208.702 34.6467 205.805 33.9029 202.634 33.9029C199.542 33.9029 196.645 34.6859 193.982 36.2127C191.399 37.7003 189.285 39.8927 187.68 42.7897C186.114 45.6475 185.37 48.936 185.37 52.7335C185.37 56.5701 186.153 59.9369 187.68 62.873C189.285 65.7309 191.399 67.9232 193.982 69.45C196.645 70.9377 199.542 71.6815 202.634 71.6815C205.805 71.6815 208.663 70.9377 211.286 69.45C213.948 67.8841 216.062 65.6917 217.589 62.873C219.116 59.976 219.899 56.5701 219.899 52.6552Z" fill="black"/>
</svg>
